<svg width="50" height="50" fill="none" xmlns="http://www.w3.org/2000/svg"><rect width="50" height="50" rx="5" fill="#164C9C"/><path d="M14.776 32.832V17.448c0-.12.048-.192.168-.192.912-.024 2.688-.072 4.44-.072 4.656 0 6.384 2.592 6.384 5.232 0 3.816-2.952 5.472-6.576 5.472H17.68v4.92c0 .12-.048.192-.192.192h-2.52c-.12 0-.192-.048-.192-.168Zm2.904-13.08v5.568c.408.024.72.024 1.512.024 2.016 0 3.72-.672 3.72-2.856 0-1.752-1.248-2.784-3.456-2.784-.84 0-1.512.024-1.776.048Zm17.166 4.2c-.744-.408-1.944-.696-3-.696-1.272 0-1.704.528-1.704 1.032 0 .528.36.888 1.896 1.488 2.736 1.008 3.672 2.088 3.672 3.792 0 2.256-1.776 3.672-4.728 3.672-1.416 0-2.664-.264-3.384-.672-.12-.072-.168-.12-.168-.264v-2.28c0-.12.096-.168.192-.12 1.032.672 2.352.96 3.432.96 1.248 0 1.848-.432 1.848-1.056 0-.6-.456-.984-1.944-1.584-2.616-.96-3.552-2.04-3.552-3.768 0-1.824 1.488-3.528 4.488-3.528 1.392 0 2.448.192 3.024.48.12.072.144.168.144.288v2.112c0 .12-.072.192-.216.144Z" fill="#fff"/></svg>