<svg width="50" height="50" fill="none" xmlns="http://www.w3.org/2000/svg"><rect width="50" height="50" rx="5" fill="#88144C"/><path d="M19.68 17.424v15.36c0 .168-.048.216-.192.216h-2.52c-.144 0-.192-.072-.192-.216v-15.36c0-.168.072-.192.192-.192h2.52c.144 0 .192.048.192.192Zm8.56 15.816c-3.48 0-6.144-2.016-6.144-6.048 0-3.48 2.592-6.264 6.816-6.264.336 0 .624.024 1.032.072v-4.92c0-.12.048-.168.144-.168h2.616c.12 0 .12.048.12.144v14.496c0 .48.048 1.104.096 1.536 0 .12-.024.168-.144.216a11.38 11.38 0 0 1-4.536.936Zm1.704-2.688V23.52c-.312-.12-.696-.168-1.128-.168-2.136 0-3.744 1.368-3.744 3.696 0 2.616 1.56 3.696 3.48 3.696.48 0 .96-.048 1.392-.192Z" fill="#fff"/></svg>