<svg width="50" height="50" fill="none" xmlns="http://www.w3.org/2000/svg"><rect width="50" height="50" rx="5" fill="#243043"/><path fill-rule="evenodd" clip-rule="evenodd" d="M23.467 14.237h-3.048a3.048 3.048 0 1 0 0 6.096h3.048v-6.096Zm0-2.067h5.115a5.115 5.115 0 0 1 3.083 9.197 5.115 5.115 0 0 1-6.131 8.19v4.055a5.115 5.115 0 1 1-8.199-4.082 5.107 5.107 0 0 1-2.032-4.082c0-1.667.798-3.148 2.032-4.081a5.115 5.115 0 0 1 3.083-9.197h3.049Zm2.067 2.067v6.096h3.048a3.048 3.048 0 1 0 0-6.096h-3.049Zm-5.115 14.26h3.048V22.4h-3.048a3.048 3.048 0 0 0-.013 6.097h.013Zm-3.049 5.115a3.048 3.048 0 0 1 3.036-3.049h3.061v3.049a3.048 3.048 0 0 1-6.097 0Zm8.163-8.17a3.048 3.048 0 1 1 0 .012v-.012Z" fill="#fff"/></svg>