<svg width="50" height="50" fill="none" xmlns="http://www.w3.org/2000/svg"><rect width="50" height="50" rx="5" fill="#2A988B"/><g clip-path="url(#a)" fill="#fff"><path d="M25.046 34.774c-1.312-.033-2.394-.624-3.085-1.86-.709-1.277-.678-2.584.077-3.829 1.799-2.963 3.62-5.91 5.431-8.866.37-.604.732-1.217 1.12-1.81a3.63 3.63 0 0 1 2.24-1.6 3.562 3.562 0 0 1 2.697.453 3.71 3.71 0 0 1 1.213 5.067 749.275 749.275 0 0 1-6.602 10.785c-.688 1.106-1.73 1.64-3.09 1.66Zm-11.269 0c-1.324-.033-2.4-.651-3.078-1.881-.699-1.277-.655-2.587.103-3.832a2113.19 2113.19 0 0 1 5.83-9.504c.247-.409.494-.828.758-1.224a3.626 3.626 0 0 1 2.277-1.531 3.565 3.565 0 0 1 2.678.52 3.71 3.71 0 0 1 1.569 2.279 3.781 3.781 0 0 1-.425 2.752 1503.98 1503.98 0 0 1-6.548 10.679c-.713 1.152-1.76 1.722-3.164 1.742Zm22.611-7.234a3.623 3.623 0 0 1 3.608 3.62 3.628 3.628 0 0 1-3.673 3.62 3.615 3.615 0 0 1-3.6-3.626c.003-2.026 1.625-3.627 3.665-3.614Z"/></g><defs><clipPath id="a"><path fill="#fff" transform="translate(10 16)" d="M0 0h30v19H0z"/></clipPath></defs></svg>