<svg width="50" height="50" fill="none" xmlns="http://www.w3.org/2000/svg"><rect width="50" height="50" rx="5" fill="#0D8EB7"/><path fill-rule="evenodd" clip-rule="evenodd" d="M36.117 23.891c.136.236.18.505.194.806l.02.403v2.812l.02.402a1.226 1.226 0 0 0 1.174 1.185l.396.02V25.1l.02-.402c.016-.298.06-.571.197-.809a1.576 1.576 0 0 1 2.751.005c.135.236.177.51.194.804l.02.401v2.814l.019.402c.04.661.517 1.147 1.174 1.185l.396.02v-4.822c0-.852-.335-1.67-.931-2.273a3.164 3.164 0 0 0-3.558-.658 3.174 3.174 0 0 0-1.076.805 3.18 3.18 0 0 0-1.077-.805 3.147 3.147 0 0 0-3.09.268c-.31-.35-1.003-.553-1.4-.553v8.038l.397-.02c.666-.044 1.147-.517 1.172-1.185l.022-.402V25.1l.02-.403c.016-.303.058-.57.194-.807a1.58 1.58 0 0 1 2.753.002ZM8.897 29.5l.399.02h5.963l-.02-.402c-.054-.66-.517-1.143-1.172-1.186l-.398-.02H10.09l4.77-4.824-.02-.4a1.208 1.208 0 0 0-1.172-1.187l-.398-.018-5.963-.002.02.402c.051.655.521 1.148 1.171 1.186l.399.02h3.577l-4.77 4.823.02.402c.04.663.512 1.143 1.173 1.185ZM30 22.658a4.057 4.057 0 0 1 0 5.684 3.957 3.957 0 0 1-2.812 1.177 3.957 3.957 0 0 1-2.812-1.177 4.05 4.05 0 0 1 0-5.684 3.971 3.971 0 0 1 1.288-.871 3.934 3.934 0 0 1 3.044 0c.483.201.922.497 1.292.87Zm-1.125 1.138a2.428 2.428 0 0 1 0 3.411 2.374 2.374 0 0 1-1.687.706c-.633 0-1.24-.254-1.687-.706A2.426 2.426 0 0 1 24.8 25.5c0-.64.251-1.253.699-1.705a2.374 2.374 0 0 1 1.687-.706c.632 0 1.239.254 1.686.706ZM18.84 21.481a3.93 3.93 0 0 1 1.52.306c.483.202.92.498 1.29.871a4.049 4.049 0 0 1 0 5.684 3.957 3.957 0 0 1-2.813 1.177 3.957 3.957 0 0 1-2.812-1.177 4.05 4.05 0 0 1 0-5.684 3.97 3.97 0 0 1 1.29-.871 3.933 3.933 0 0 1 1.52-.306h.005Zm1.684 2.314c.448.453.699 1.066.699 1.706a2.42 2.42 0 0 1-.699 1.705 2.374 2.374 0 0 1-1.687.706 2.372 2.372 0 0 1-1.686-.706 2.426 2.426 0 0 1-.699-1.705c0-.64.251-1.253.698-1.705a2.374 2.374 0 0 1 1.687-.706c.633 0 1.24.253 1.687.705Z" fill="#fff"/></svg>