<svg width="300" height="300" viewBox="0 0 300 300" fill="none" xmlns="http://www.w3.org/2000/svg">
<rect width="300" height="300" rx="30" fill="#CC4722"/>
<path d="M88.4355 216.836L74.9023 65H223.768L210.234 216.836L149.17 234" fill="#FF7954"/>
<path d="M149.5 220.797L198.682 207.264L210.234 77.2129H149.5" fill="#CC4722"/>
<path d="M149.5 133.656H124.744L123.094 114.512H149.5V96.0273H149.17H102.629L102.959 100.979L107.58 152.471H149.5V133.656ZM149.5 182.178H149.17L128.375 176.566L127.055 161.713H117.152H108.57L110.881 191.09L149.17 201.652H149.5V182.178Z" fill="white"/>
<path d="M149.17 133.656V152.471H172.275L169.965 176.566L149.17 182.178V201.652L187.459 191.09L187.789 187.789L192.08 138.607L192.74 133.656H187.459H149.17ZM149.17 96.0273V107.58V114.512H194.391L194.721 110.551L195.711 100.979L196.041 96.0273H149.17Z" fill="white"/>
</svg>
