<svg width="50" height="50" fill="none" xmlns="http://www.w3.org/2000/svg"><rect width="50" height="50" rx="5" fill="#631488"/><path d="M15.776 32.832V17.448c0-.12.048-.192.168-.192.912-.024 2.688-.072 4.44-.072 4.656 0 6.384 2.592 6.384 5.232 0 3.816-2.952 5.472-6.576 5.472H18.68v4.92c0 .12-.048.192-.192.192h-2.52c-.12 0-.192-.048-.192-.168Zm2.904-13.08v5.568c.408.024.72.024 1.512.024 2.016 0 3.72-.672 3.72-2.856 0-1.752-1.248-2.784-3.456-2.784-.84 0-1.512.024-1.776.048Zm10.215 1.416h2.256c.144 0 .216.048.264.192.12.312.216.912.24 1.44.816-1.008 2.184-1.872 3.84-1.872.144 0 .192.024.192.168v2.544c0 .12-.048.168-.216.168-1.704-.048-3.12.552-3.672 1.272v7.728c0 .144-.072.192-.216.192h-2.496c-.168 0-.216-.072-.216-.192v-8.28c0-1.032-.024-2.424-.12-3.216 0-.12.024-.144.144-.144Z" fill="#fff"/></svg>