<svg width="50" height="50" fill="none" xmlns="http://www.w3.org/2000/svg"><rect width="50" height="50" rx="5" fill="#0C4963"/><g clip-path="url(#a)"><path d="M25.396 38h-.77a.305.305 0 0 0-.108-.016 14.03 14.03 0 0 1-1.225-.108 12.658 12.658 0 0 1-2.227-.496 13.065 13.065 0 0 1-3.478-1.714 12.908 12.908 0 0 1-2.646-2.45 12.8 12.8 0 0 1-2.11-3.66 12.741 12.741 0 0 1-.797-3.689.748.748 0 0 0-.036-.205V24.32a.596.596 0 0 0 .036-.183 12.827 12.827 0 0 1 1.378-5.035 13.033 13.033 0 0 1 3.84-4.549 12.892 12.892 0 0 1 6.66-2.517c.14-.013.287-.003.428-.036h1.319c.101.03.206.013.307.023a14.76 14.76 0 0 1 1.558.212 12.86 12.86 0 0 1 4.52 1.825 12.985 12.985 0 0 1 2.867 2.51c.67.785 1.238 1.637 1.701 2.557a12.74 12.74 0 0 1 1.163 3.425c.118.634.206 1.273.209 1.92 0 .043.01.088.013.13v.771c-.013.049-.013.101-.016.153 0 .124 0 .249-.01.373a12.88 12.88 0 0 1-2.198 6.367 13.005 13.005 0 0 1-4.922 4.333 12.828 12.828 0 0 1-5.055 1.36c-.13.015-.267.012-.4.041Zm-5.254-6.204a3 3 0 0 0 .699-.071c.715-.157 1.323-.483 1.79-1.061a6.59 6.59 0 0 0 .728-1.137c.242-.473.444-.966.62-1.466.216-.603.399-1.22.54-1.844.078-.35-.01-.569-.396-.689a18.39 18.39 0 0 0-1.486-.402c-.832-.183-1.672-.3-2.528-.271-.242.01-.483.036-.722.078a3.112 3.112 0 0 0-1.76.947c-.82.862-1.146 1.89-.944 3.063.29 1.675 1.773 2.866 3.459 2.853Zm1.381-12.008c-.01.244.036.512.111.78.144.51.382.976.663 1.417.64 1.002 1.447 1.86 2.322 2.658.072.065.157.12.249.163a.318.318 0 0 0 .277.006.723.723 0 0 0 .242-.166c.304-.3.604-.601.892-.912.405-.44.79-.894 1.14-1.38.317-.441.6-.905.81-1.408.208-.5.31-1.015.242-1.557-.115-.895-.497-1.652-1.18-2.247-.807-.701-1.747-.982-2.806-.826-1.72.255-2.969 1.77-2.962 3.472Zm8.485 11.989c.085-.003.238 0 .392-.023 1.031-.153 1.848-.653 2.423-1.528.45-.688.633-1.453.548-2.272a3.385 3.385 0 0 0-.914-2.005c-.457-.49-1.003-.83-1.662-.973a5.656 5.656 0 0 0-1.1-.117 8.661 8.661 0 0 0-1.304.091c-.862.12-1.705.327-2.534.588a.685.685 0 0 0-.232.12.338.338 0 0 0-.137.275c0 .098.01.196.033.294.052.196.098.392.15.584.242.882.536 1.744.938 2.567.231.473.5.92.842 1.323.261.303.565.551.928.724a3.47 3.47 0 0 0 1.629.352Z" fill="#fff"/></g><defs><clipPath id="a"><path fill="#fff" transform="translate(12 12)" d="M0 0h26v26H0z"/></clipPath></defs></svg>