<svg width="50" height="50" fill="none" xmlns="http://www.w3.org/2000/svg"><rect width="50" height="50" rx="5" fill="#82663E"/><path d="M28.412 12.024c-2.91.208-14.965 1.11-15.058 1.127-.691.12-1.105.49-1.287 1.143l-.056.208v8.245c0 6.64.006 8.272.028 8.385.082.416.277.858.572 1.3.264.394 3.677 4.82 3.863 5.009.193.195.349.303.574.399.375.162.767.186 1.874.119.72-.046 1.48-.091 2.72-.165l2.491-.151c.635-.04 4.914-.297 5.926-.358l1.235-.076 2.145-.13a94.686 94.686 0 0 0 1.83-.121c.467-.054.891-.215 1.13-.43.22-.198.366-.478.448-.868.03-.145.035-1.079.041-9.208.005-5.924 0-9.113-.015-9.241-.039-.358-.177-.548-.656-.908-.193-.143-2.737-1.941-4.932-3.486-.806-.566-1.17-.728-1.774-.793a7.694 7.694 0 0 0-1.099 0Zm1.051 1.484c.362.063.728.215 1.04.429.648.449 2.73 1.98 2.78 2.043.072.098.076.174.01.202-.027.013-3.301.216-7.275.455-3.973.238-7.358.444-7.518.455-.44.032-1.03.026-1.22-.009a1.89 1.89 0 0 1-.646-.27c-.203-.137-2.212-1.732-2.322-1.845-.132-.14-.106-.299.067-.387.045-.022.12-.053.167-.066.047-.01.832-.075 1.744-.143l2.09-.153.874-.063 2.658-.195 1.777-.13.888-.065.889-.065a3542.53 3542.53 0 0 0 3.206-.236c.146-.015.596.01.791.043Zm5.293 4.468c.202.088.325.277.384.578.017.096.022 2.182.017 7.952-.006 7.21-.01 7.83-.043 7.936-.108.347-.31.54-.65.622-.184.046-16.066.973-16.33.953-.447-.03-.722-.173-.858-.444-.126-.249-.12.317-.12-8.168 0-8.392-.004-7.926.107-8.142.086-.17.277-.302.498-.35.063-.012.609-.053 1.213-.088.603-.035 2.013-.12 3.133-.184l4.247-.25a3051.21 3051.21 0 0 0 7.692-.452c.383-.028.59-.017.71.037Z" fill="#fff"/><path d="M30.785 20.808a71.27 71.27 0 0 0-1.705.114.894.894 0 0 0-.661.475.58.58 0 0 0-.072.323c0 .097.005.182.011.188.007.007.3.043.65.085l.64.073.006 3.476c.002 2.038-.004 3.466-.015 3.455-.011-.012-1.157-1.767-2.548-3.9a838.877 838.877 0 0 0-2.557-3.908c-.024-.024-.312-.011-1.868.093-1.01.067-1.9.132-1.978.145a.885.885 0 0 0-.479.228.917.917 0 0 0-.26.422c-.04.134-.056.418-.023.47.013.018.188.041.57.07.303.023.582.05.621.056l.07.01-.005 4.978-.006 4.977-.369.101c-.639.178-.62.17-.73.28a.7.7 0 0 0-.175.604l.013.072.262-.015.62-.035c.197-.013.782-.046 1.3-.076l1.3-.076c.54-.032.782-.112 1.01-.338a.89.89 0 0 0 .244-.453.45.45 0 0 0 .013-.116 30.963 30.963 0 0 0-.784-.185l-.776-.175-.006-3.76c-.005-3.219 0-3.752.026-3.726.017.017 1.128 1.764 2.472 3.878 1.428 2.247 2.51 3.933 2.606 4.052.278.347.535.59.722.678.223.106.37.132.723.132.34 0 .533-.032.893-.151a6.92 6.92 0 0 0 .843-.367l.052-.032v-5.558c0-3.057.002-5.557.006-5.557.05 0 .876-.18.928-.202a.56.56 0 0 0 .266-.32c.035-.113.048-.438.022-.535-.017-.063.067-.065-1.872.05Z" fill="#fff"/></svg>