<svg width="50" height="50" fill="none" xmlns="http://www.w3.org/2000/svg"><rect width="50" height="50" rx="5" fill="#2A9856"/><path d="m26.277 25.5 1.895 2.257 2.55 1.697.444-3.94-.445-3.852-2.598 1.49-1.846 2.348Zm-11 3.588v3.356c0 .768.596 1.39 1.333 1.39h3.222l.667-2.538-.667-2.208-2.21-.694-2.345.694Zm4.555-11.921-4.555 4.745 2.344.694 2.211-.694.656-2.178-.656-2.567Z" fill="#fff"/><path d="M19.832 21.912h-4.555v7.176h4.555v-7.176Zm13.8-2.736-2.91 2.486v7.792l2.924 2.497c.437.357 1.077.032 1.077-.548v-11.69c0-.587-.654-.909-1.09-.537ZM26.277 25.5v3.588h-6.445v4.745h9.556c.736 0 1.333-.621 1.333-1.389v-2.99L26.277 25.5Zm3.111-8.333h-9.556v4.745h6.445V25.5l4.444-3.836v-3.109c0-.767-.596-1.388-1.333-1.388Z" fill="#fff"/></svg>