<svg width="50" height="50" fill="none" xmlns="http://www.w3.org/2000/svg"><rect width="50" height="50" rx="5" fill="#B56A26"/><path d="M23.984 28.848h-5.736l-1.32 3.96c-.048.144-.12.192-.264.192h-2.4c-.144 0-.192-.072-.168-.24l4.944-14.064c.096-.24.168-.48.216-1.296 0-.096.048-.168.144-.168h3.336c.12 0 .144.024.168.144l5.544 15.408c.024.144 0 .216-.144.216h-2.688c-.12 0-.192-.048-.24-.144l-1.392-4.008Zm-4.968-2.616h4.2c-.504-1.584-1.632-4.92-2.112-6.6h-.024c-.384 1.608-1.344 4.416-2.064 6.6Zm11.191 6.552V21.336c0-.12.072-.168.192-.168h2.544c.144 0 .192.024.192.168v11.472c0 .144-.048.192-.216.192h-2.472c-.168 0-.24-.072-.24-.216Zm1.464-13.224c-.984 0-1.632-.672-1.632-1.656 0-.984.696-1.656 1.656-1.656 1.032 0 1.632.696 1.632 1.656 0 .984-.648 1.656-1.656 1.656Z" fill="#fff"/></svg>