<svg xmlns="http://www.w3.org/2000/svg" width="50" height="50"><path d="M 5 50 C 2.239 50 0 50 0 50 L 0 0 C 0 0 2.239 0 5 0 L 45 0 C 47.761 0 50 0 50 0 L 50 50 C 50 50 47.761 50 45 50 Z" fill="rgb(42,112,152)"></path><g transform="translate(12 12)"><path d="M 0 0 L 26 0 L 26 26 L 0 26 Z" fill="transparent"></path><path d="M 12.454 0.015 C 11.101 0.097 10.032 0.295 8.899 0.673 C 7.792 1.041 6.805 1.523 5.827 2.171 C 1.818 4.824 -0.398 9.473 0.066 14.257 C 0.453 18.279 2.689 21.892 6.116 24.032 C 7.922 25.162 9.933 25.815 12.111 25.977 C 12.619 26.015 13.876 25.992 14.384 25.937 C 19.401 25.398 23.655 22.009 25.302 17.24 C 25.614 16.341 25.837 15.303 25.954 14.219 C 26.005 13.724 26 12.205 25.942 11.679 C 25.563 8.237 23.938 5.195 21.302 2.994 C 19.332 1.348 16.837 0.314 14.232 0.064 C 13.64 0.021 13.047 0.005 12.454 0.015 Z M 18.596 7.855 C 18.856 7.935 18.974 8.095 19.02 8.422 C 19.063 8.734 18.992 9.39 18.685 11.464 C 18.355 13.694 17.631 17.936 17.489 18.472 C 17.379 18.878 17.199 19.226 17.029 19.355 C 16.854 19.487 16.783 19.51 16.542 19.51 C 16.156 19.513 15.836 19.386 15.323 19.033 C 14.918 18.758 14.512 18.483 14.105 18.21 C 11.311 16.331 11.238 16.278 11.105 16.014 C 11.033 15.871 11.021 15.706 11.07 15.554 C 11.16 15.318 11.474 14.991 12.797 13.762 C 14.424 12.248 15.3 11.39 15.509 11.111 C 15.579 11.015 15.582 10.885 15.514 10.816 C 15.427 10.73 15.273 10.748 15.067 10.872 C 14.637 11.129 11.982 12.896 9.864 14.333 C 9.334 14.693 8.889 14.884 8.498 14.923 C 8.158 14.953 7.452 14.798 6.31 14.445 C 5.451 14.175 5.238 14.092 5.078 13.947 C 4.781 13.68 4.88 13.394 5.373 13.109 C 5.523 13.02 8.653 11.652 11.54 10.41 C 15.118 8.872 17.304 8.003 17.961 7.858 C 18.17 7.813 18.449 7.813 18.596 7.856 Z" fill="rgb(255,255,255)"></path></g></svg>